Coordinates
version=1
nRows=8
nColumns=63
inDegrees=yes

Units are S.I. units (second, meters, Newtons, ...)
If the header above contains a line with 'inDegrees', this indicates whether rotational values are in degrees (yes) or radians (no).

endheader
time	pelvis_tilt	pelvis_list	pelvis_rotation	pelvis_tx	pelvis_ty	pelvis_tz	hip_flexion_r	hip_adduction_r	hip_rotation_r	knee_angle_r	knee_angle_r_beta	ankle_angle_r	subtalar_angle_r	mtp_angle_r	hip_flexion_l	hip_adduction_l	hip_rotation_l	knee_angle_l	knee_angle_l_beta	ankle_angle_l	subtalar_angle_l	mtp_angle_l	L5_S1_Flex_Ext	L5_S1_Lat_Bending	L5_S1_axial_rotation	L4_L5_Flex_Ext	L4_L5_Lat_Bending	L4_L5_axial_rotation	L3_L4_Flex_Ext	L3_L4_Lat_Bending	L3_L4_axial_rotation	L2_L3_Flex_Ext	L2_L3_Lat_Bending	L2_L3_axial_rotation	L1_L2_Flex_Ext	L1_L2_Lat_Bending	L1_L2_axial_rotation	L1_T12_Flex_Ext	L1_T12_Lat_Bending	L1_T12_axial_rotation	Abs_r3	Abs_r2	Abs_r1	Abs_t1	Abs_t2	neck_flexion	neck_bending	neck_rotation	arm_flex_r	arm_add_r	arm_rot_r	elbow_flex_r	pro_sup_r	wrist_flex_r	wrist_dev_r	arm_flex_l	arm_add_l	arm_rot_l	elbow_flex_l	pro_sup_l	wrist_flex_l	wrist_dev_l
3.169492	-0.722158	-2.506139	83.253339	0.329866	0.747594	0.680226	1.419799	0.499147	5.575620	4.177269	0.072907	15.852701	5.044583	0.000000	2.079649	-5.115298	-15.332682	8.517635	0.148661	19.448912	11.423685	0.000000	0.158582	-0.875313	2.852793	0.294502	-1.164167	3.031093	0.260534	-2.128237	3.031093	0.181243	-2.128237	2.496194	0.147259	-1.784939	2.317895	0.090614	-1.355860	2.139595	1.132733	-9.901718	15.866381	0.000000	0.000000	26.198171	-3.434065	16.830483	-16.230190	-10.713104	-19.665484	104.632482	60.999474	-11.294577	5.572996	1.629501	-12.342485	-39.837379	140.077604	64.346214	-16.086392	-4.278022
3.186441	-0.512436	-2.615148	83.293268	0.329737	0.747589	0.678853	1.328529	0.704756	5.617702	3.969739	0.069285	15.689120	5.139200	0.000000	2.070900	-5.303720	-15.089557	8.467266	0.147782	19.440484	11.136976	0.000000	0.165054	-0.895133	2.642808	0.306521	-1.190526	2.807983	0.271166	-2.176425	2.807983	0.188640	-2.176425	2.312457	0.153269	-1.825354	2.147281	0.094312	-1.386560	1.982106	1.178961	-10.125919	14.698504	0.000000	0.000000	26.559561	-3.385434	18.097330	-15.613767	-11.082649	-16.726100	101.857487	66.802064	-11.253853	8.958400	1.617897	-12.622363	-43.522495	142.971745	61.479053	-15.404187	-5.128305
3.203390	-0.302077	-2.755495	83.329802	0.329540	0.747388	0.677556	1.291882	0.921485	5.810195	3.806865	0.066442	15.523993	5.057237	0.000000	2.152129	-5.503264	-14.795327	8.527148	0.148827	19.510073	10.750288	0.000000	0.169748	-0.910012	2.430087	0.315239	-1.210316	2.581968	0.278879	-2.212603	2.581968	0.194005	-2.212603	2.126327	0.157628	-1.855697	1.974446	0.096994	-1.409609	1.822566	1.212494	-10.294239	13.515417	0.000000	0.000000	26.942424	-3.607772	19.215653	-14.974787	-11.429400	-13.821151	99.163171	72.582798	-11.300646	12.135521	1.561478	-12.840687	-47.094109	145.363482	59.079669	-14.480796	-5.058541
3.220339	-0.101772	-2.895219	83.380107	0.329257	0.747048	0.676397	1.284836	1.132045	6.104400	3.698932	0.064559	15.351993	4.832430	0.000000	2.298492	-5.700237	-14.464778	8.697215	0.151795	19.623603	10.307870	0.000000	0.170240	-0.920744	2.217800	0.316153	-1.224589	2.356412	0.279687	-2.238696	2.356412	0.194567	-2.238696	1.940575	0.158085	-1.877580	1.801962	0.097275	-1.426232	1.663350	1.216008	-10.415636	12.334737	0.000000	0.000000	27.273607	-4.117455	20.079509	-14.345054	-11.714559	-11.100904	96.699378	78.414444	-11.403227	15.179644	1.499008	-12.977536	-50.448389	147.159375	57.337472	-13.259996	-4.169072
3.237288	0.084688	-3.026880	83.389590	0.328960	0.746591	0.675392	1.294063	1.336425	6.661972	3.625293	0.063273	15.139076	4.297107	0.000000	2.476762	-5.887570	-14.143142	8.938296	0.156003	19.803353	9.800592	0.000000	0.168872	-0.927051	2.023848	0.313612	-1.232977	2.150338	0.277440	-2.254031	2.150338	0.193004	-2.254031	1.770867	0.156814	-1.890442	1.644376	0.096493	-1.436001	1.517886	1.206235	-10.486983	11.256035	0.000000	0.000000	27.546673	-4.595218	20.979900	-13.786468	-11.929143	-8.576293	94.608357	83.570376	-11.577194	17.674255	1.421841	-13.002398	-53.370701	148.341032	56.222370	-12.113565	-2.823094
3.254237	0.263018	-3.136760	83.450778	0.328535	0.746063	0.674597	1.302079	1.530184	7.261366	3.580244	0.062487	14.906539	3.605437	0.000000	2.694695	-6.063787	-13.733310	9.256836	0.161562	20.020148	9.232292	0.000000	0.165044	-0.929343	1.835918	0.306502	-1.236026	1.950663	0.271150	-2.259605	1.950663	0.188628	-2.259605	1.606429	0.153259	-1.895116	1.491684	0.094306	-1.439552	1.376939	1.178890	-10.512915	10.210827	0.000000	0.000000	27.740869	-5.106819	21.749141	-13.307083	-12.091628	-6.244738	92.983329	87.487424	-11.810802	19.522487	1.328808	-12.905822	-55.777493	148.932299	55.904300	-11.186159	-1.118915
3.271186	0.423951	-3.223365	83.536473	0.328025	0.745497	0.674055	1.315427	1.698539	7.754149	3.569787	0.062305	14.714304	3.008598	0.000000	2.940574	-6.211313	-13.197379	9.630483	0.168084	20.241388	8.513688	0.000000	0.159937	-0.929519	1.664969	0.297019	-1.236261	1.769030	0.262760	-2.260033	1.769030	0.182792	-2.260033	1.456848	0.148517	-1.895476	1.352787	0.091388	-1.439825	1.248727	1.142414	-10.514909	9.260059	0.000000	0.000000	27.825682	-5.501418	22.463614	-12.918903	-12.198513	-4.161622	91.840314	90.034120	-11.996753	20.620408	1.217791	-12.693963	-57.565002	148.946826	56.428527	-10.595418	0.548187
3.288136	0.561635	-3.278146	83.590150	0.327529	0.744930	0.673761	1.312123	1.842035	8.405489	3.563524	0.062195	14.479218	2.195157	0.000000	3.168031	-6.332777	-12.704686	10.004417	0.174610	20.464015	7.804730	0.000000	0.154843	-0.930820	1.524637	0.287558	-1.237991	1.619927	0.254391	-2.263196	1.619927	0.176970	-2.263196	1.334058	0.143787	-1.898128	1.238768	0.088477	-1.441840	1.143478	1.106025	-10.529622	8.479576	0.000000	0.000000	27.821571	-5.777200	22.948729	-12.616173	-12.259148	-2.359055	91.128098	91.215052	-12.077036	20.990843	1.104899	-12.357430	-58.737456	148.479303	57.690142	-10.246524	2.096524
